<?xml version="1.0" encoding="UTF-8"?>
<svg width="43px" height="36px" viewBox="0 0 43 36" version="1.1" xmlns="http://www.w3.org/2000/svg" xmlns:xlink="http://www.w3.org/1999/xlink">
    <title>Shape</title>
    <g id="Page-1" stroke="none" stroke-width="1" fill="none" fill-rule="evenodd">
        <g id="noun_add-person_1628558" transform="translate(-3.000000, 0.000000)" fill="#000000" fill-rule="nonzero">
            <path d="M27.3,21.8 C33.1,21.8 37.9,17.1 37.9,11.2 C37.9,5.3 33.1,0.7 27.3,0.7 C21.5,0.7 16.7,5.4 16.7,11.3 C16.7,17.2 21.5,21.8 27.3,21.8 Z M27.3,4.7 C30.9,4.7 33.9,7.6 33.9,11.3 C33.9,15 31,17.9 27.3,17.9 C23.7,17.9 20.7,15 20.7,11.3 C20.7,7.6 23.7,4.7 27.3,4.7 Z M44.6,34.7 C43.7,35.4 42.5,35.2 41.8,34.3 C38.9,30.5 33.4,28.1 27.4,28.1 C21.3,28.1 15.8,30.6 12.9,34.5 C12.5,35 11.9,35.3 11.3,35.3 C10.9,35.3 10.5,35.2 10.1,34.9 C9.2,34.2 9,33 9.6,32.1 C13.2,27.1 20,24.1 27.4,24.1 C34.6,24.1 41.3,27.1 45,31.9 C45.6,32.7 45.5,34 44.6,34.7 Z M9.7,26 C9.1,26 8.7,25.6 8.7,25 L8.7,20.9 L4.6,20.9 C4,20.9 3.6,20.5 3.6,19.9 C3.6,19.3 4,18.9 4.6,18.9 L8.7,18.9 L8.7,14.8 C8.7,14.2 9.1,13.8 9.7,13.8 C10.3,13.8 10.7,14.2 10.7,14.8 L10.7,18.9 L14.8,18.9 C15.4,18.9 15.8,19.3 15.8,19.9 C15.8,20.5 15.4,20.9 14.8,20.9 L10.7,20.9 L10.7,25 C10.7,25.5 10.3,26 9.7,26 Z" id="Shape"></path>
        </g>
    </g>
</svg>