<?xml version="1.0" encoding="UTF-8"?>
<svg width="76px" height="96px" viewBox="0 0 76 96" version="1.1" xmlns="http://www.w3.org/2000/svg" xmlns:xlink="http://www.w3.org/1999/xlink">
    <title>Path</title>
    <g id="Page-1" stroke="none" stroke-width="1" fill="none" fill-rule="evenodd">
        <g id="noun_down_1920769" transform="translate(-12.000000, 0.000000)" fill="#7AC133" fill-rule="nonzero">
            <path d="M57.4,92.4 L84.2,65.6 C88.3,61.5 88.3,54.8 84.2,50.7 C80.1,46.6 73.4,46.6 69.3,50.7 L60.5,59.5 L60.5,11 C60.5,5.2 55.8,0.5 50,0.5 C44.2,0.5 39.5,5.2 39.5,11 L39.5,59.6 L30.6,50.7 C26.5,46.6 19.8,46.6 15.7,50.7 C13.6,52.8 12.6,55.4 12.6,58.1 C12.6,60.8 13.6,63.5 15.7,65.5 L42.5,92.3 C44.5,94.3 47.1,95.4 49.9,95.4 C52.8,95.5 55.5,94.4 57.4,92.4 Z" id="Path"></path>
        </g>
    </g>
</svg>