<?xml version="1.0" encoding="UTF-8"?>
<svg width="345px" height="162px" viewBox="0 0 345 162" version="1.1" xmlns="http://www.w3.org/2000/svg" xmlns:xlink="http://www.w3.org/1999/xlink">
    <title>Group</title>
    <g id="Page-1" stroke="none" stroke-width="1" fill="none" fill-rule="evenodd">
        <g id="noun_gif_2026962" transform="translate(-128.000000, 0.000000)" fill="#000000" fill-rule="nonzero">
            <g id="Group" transform="translate(128.047347, 0.524966)">
                <path d="M22.3326526,118.235034 C19.3198843,118.259664 16.339647,118.860464 13.5526526,120.005034 C10.9628563,121.084945 8.59095905,122.626678 6.55265257,124.555034 C4.4915136,126.488744 2.84190519,128.818603 1.70265257,131.405034 C-0.661582892,136.81541 -0.559410419,142.985898 1.98265257,148.315034 C3.21872911,150.857716 4.94908739,153.128598 7.07265257,154.995034 C9.14669871,156.825759 11.5127753,158.296107 14.0726526,159.345034 C22.5300094,162.697691 32.1666652,160.793044 38.7126526,154.475034 C42.9839697,150.513861 45.3477189,144.908607 45.2026526,139.085034 C45.1560113,133.267625 42.5786702,127.758832 38.1426526,123.995034 C33.8137614,120.106187 28.1486009,118.04222 22.3326526,118.235034 L22.3326526,118.235034 Z" id="Path"></path>
                <path d="M158.662653,64.7850344 C154.157301,61.7518222 148.798883,60.2413722 143.372653,60.4750344 L120.962653,60.8650344 C110.806136,61.0390041 102.713683,69.4135178 102.887653,79.5700344 C103.061622,89.7265509 111.436136,97.8190041 121.592653,97.6450344 L126.842653,97.5550344 L127.242653,120.725034 C126.062653,121.235034 124.822653,121.725034 123.542653,122.115034 C120.984142,122.87048 118.330362,123.254402 115.662653,123.255034 C112.404333,123.420243 109.146136,122.927092 106.082653,121.805034 C103.91968,120.970743 102.008214,119.593109 100.532653,117.805034 C98.9745388,115.775202 97.8758822,113.431174 97.3126526,110.935034 C96.4860054,107.434657 96.0599369,103.851656 96.0426526,100.255034 L95.3426526,59.5550344 C95.2383151,55.9620615 95.5436167,52.3688971 96.2526526,48.8450344 C96.7257056,46.3194742 97.7500421,43.9293557 99.2526526,41.8450344 C100.664323,40.0026211 102.527804,38.555926 104.662653,37.6450344 C107.683713,36.4175728 110.922297,35.815441 114.182653,35.8750344 C116.676686,35.8002323 119.167002,36.117427 121.562653,36.8150344 C123.993911,37.5690282 126.339927,38.574464 128.562653,39.8150344 L130.642653,41.0150344 C132.069319,41.8417011 133.359319,42.5617011 134.512653,43.1750344 C136.947954,44.346972 139.646649,44.8639635 142.342653,44.6750344 C147.386169,44.7302875 152.240138,42.7555474 155.812653,39.1950344 C159.189258,35.8829009 161.049031,31.3239244 160.952653,26.5950344 C160.816957,22.053969 158.95773,17.7348425 155.752653,14.5150344 C152.517603,11.1628143 148.680908,8.44897151 144.442653,6.51503439 C139.698402,4.29405535 134.706607,2.64578971 129.572653,1.60503439 C123.957212,0.434525539 118.227659,-0.0988461392 112.492653,0.0150343922 C102.822653,0.175034392 94.3126526,1.72503439 87.1726526,4.61503439 C80.2098265,7.34879313 73.9812473,11.6701054 68.9826526,17.2350344 C64.1458006,22.8041876 60.6010833,29.37455 58.6026526,36.4750344 C56.443153,44.2037567 55.4588018,52.2134088 55.6826526,60.2350344 L56.3826526,100.925034 C56.4377467,108.950421 57.6950382,116.922256 60.1126526,124.575034 C62.3516932,131.63151 66.1331022,138.101238 71.1826526,143.515034 C76.3616746,148.915976 82.7358866,153.026161 89.7926526,155.515034 C97.0226526,158.165034 105.582653,159.415034 115.252653,159.245034 C121.036945,159.139669 126.798704,158.493521 132.462653,157.315034 C138.150044,156.185373 143.652734,154.27037 148.812653,151.625034 C153.716349,149.129951 158.040048,145.630787 161.502653,141.355034 C165.112549,136.820465 166.988093,131.147743 166.792653,125.355034 L166.002653,79.9350344 C165.862653,71.5550344 161.952653,67.0650344 158.662653,64.7850344 Z" id="Path"></path>
                <path d="M206.002653,0.475034392 C200.85566,0.392428028 195.878246,2.31454174 192.122653,5.83503439 C188.341879,9.19785604 186.177024,14.0151135 186.172653,19.0750344 L186.172653,141.385034 C186.17318,146.44578 188.33871,151.264539 192.122653,154.625034 C199.992514,161.771022 212.002791,161.771022 219.872653,154.625034 C223.674091,151.272862 225.858162,146.453346 225.872653,141.385034 L225.872653,19.0650344 C225.854313,13.9975608 223.670924,9.17954795 219.872653,5.82503439 C216.119695,2.30788832 211.145379,0.389172476 206.002653,0.475034392 Z" id="Path"></path>
                <path d="M333.432653,66.4750344 C329.763618,63.2647958 325.057819,61.4890225 320.182653,61.4750344 L286.772653,61.4750344 L286.772653,39.1050344 L324.082653,39.1050344 C329.097953,39.2023529 333.975188,37.4592126 337.792653,34.2050344 C341.747136,30.9322326 344.01108,26.0478461 343.952653,20.9150344 C343.936251,15.8537699 341.795623,11.0319157 338.052653,7.62503439 C334.325079,4.01168308 329.313391,2.02931423 324.122653,2.11503439 L268.372653,2.11503439 C265.451817,2.08591291 262.555861,2.65421442 259.862653,3.78503439 C257.384827,4.82957054 255.130668,6.34026484 253.222653,8.23503439 C251.399707,10.0563004 249.913456,12.1858033 248.832653,14.5250344 C247.708165,16.9123594 247.117784,19.5161779 247.102653,22.1550344 L247.102653,141.385034 C247.113279,146.454186 249.298035,151.275215 253.102653,154.625034 C260.972514,161.771022 272.982791,161.771022 280.852653,154.625034 C284.654091,151.272862 286.838162,146.453346 286.852653,141.385034 L286.852653,98.4750344 L320.262653,98.4750344 C325.326734,98.5666476 330.230798,96.7003092 333.952653,93.2650344 C337.722983,89.8570506 339.85263,84.9970856 339.802653,79.9150344 C339.846738,74.6965498 337.499876,69.7449297 333.432653,66.4750344 Z" id="Path"></path>
            </g>
        </g>
    </g>
</svg>