<svg xmlns="http://www.w3.org/2000/svg" xmlns:cc="http://creativecommons.org/ns#" xmlns:dc="http://purl.org/dc/elements/1.1/" xmlns:rdf="http://www.w3.org/1999/02/22-rdf-syntax-ns#" clip-rule="evenodd" fill-rule="evenodd" stroke-linecap="round" stroke-linejoin="round" stroke-miterlimit="1" version="1.1" viewBox="0 0 32 40" xml:space="preserve" x="0px" y="0px"><rect width="32" height="32" fill="none"/><path d="m16.033 3.9902a1.0001 1.0001 0 0 0 -0.095703 0.0019531 1.0001 1.0001 0 0 0 -0.001953 0 1.0001 1.0001 0 0 0 -0.001953 0 1.0001 1.0001 0 0 0 -0.003906 0 1.0001 1.0001 0 0 0 -0.71875 0.37109c-0.16744 0.15076-6.3922 5.7552-8.8867 8l-2.9941 2.6934a1.0005 1.0005 0 1 0 1.3398 1.4863l0.33008-0.29688v8.7539c0 0.74808-0.0035895 1.323 0.054688 1.8418 0.058275 0.51876 0.19295 1.0636 0.61523 1.4863s0.96725 0.55861 1.4863 0.61719c0.51908 0.058582 1.0947 0.054688 1.8438 0.054688h1c0.749 0 1.3247 0.003903 1.8438-0.054688 0.51908-0.058579 1.064-0.19448 1.4863-0.61719s0.55696-0.96756 0.61523-1.4863c0.058277-0.51876 0.054688-1.0937 0.054688-1.8418v-2c0-0.74742 0.004596-1.295 0.041016-1.6191 0.018205-0.16207 0.040726-0.24807 0.052734-0.28711 0.039522-0.012475 0.12506-0.034424 0.28711-0.052734 0.3241-0.036579 0.87114-0.041016 1.6191-0.041016s1.295 0.004396 1.6191 0.041016c0.16205 0.01829 0.24759 0.040254 0.28711 0.052734 0.012013 0.039035 0.034549 0.12504 0.052734 0.28711 0.036411 0.32414 0.041016 0.87172 0.041016 1.6191v2c0 0.749-0.003903 1.3247 0.054688 1.8438 0.058579 0.51908 0.19448 1.064 0.61719 1.4863s0.96756 0.55696 1.4863 0.61523c0.51876 0.058276 1.0937 0.054688 1.8418 0.054688h1c0.749 0 1.3247 0.003903 1.8438-0.054688 0.51908-0.058579 1.064-0.19448 1.4863-0.61719s0.55696-0.96756 0.61523-1.4863c0.058276-0.51876 0.054688-1.0937 0.054688-1.8418v-8.7539l0.33008 0.29688a1.0005 1.0005 0 1 0 1.3398 -1.4863l-2.9941-2.6934c-2.4928-2.2433-8.707-7.8378-8.8828-7.9961a1.0001 1.0001 0 0 0 -0.001953 -0.0019531 1.0001 1.0001 0 0 0 -0.75781 -0.375zm-0.033203 2.3574c0.40962 0.36857 2.2941 2.0639 4.0703 3.6621l4.2715 3.8438c0.41901 0.37936 0.6582 0.91742 0.6582 1.4824v9.6641c0 0.74742-0.004596 1.295-0.041016 1.6191-0.018205 0.16207-0.040726 0.24807-0.052734 0.28711-0.039522 0.012475-0.12506 0.034424-0.28711 0.052734-0.3241 0.036579-0.87114 0.041016-1.6191 0.041016h-1c-0.74742 0-1.295-0.004596-1.6191-0.041016-0.16207-0.018205-0.24807-0.040726-0.28711-0.052734-0.012475-0.039522-0.034424-0.12506-0.052734-0.28711-0.036579-0.3241-0.041016-0.87114-0.041016-1.6191v-2c0-0.74808 0.003602-1.323-0.054688-1.8418-0.058279-0.51876-0.19295-1.0636-0.61523-1.4863-0.42228-0.42271-0.96724-0.55861-1.4863-0.61719-0.51908-0.058582-1.0947-0.054688-1.8438-0.054688s-1.3247-0.003903-1.8438 0.054688c-0.51908 0.058579-1.064 0.19448-1.4863 0.61719s-0.55696 0.96756-0.61523 1.4863c-0.058277 0.51876-0.054688 1.0937-0.054688 1.8418v2c0 0.74742-0.004596 1.295-0.041016 1.6191-0.018205 0.16207-0.040726 0.24807-0.052734 0.28711-0.039522 0.012475-0.12506 0.034424-0.28711 0.052734-0.3241 0.036579-0.87114 0.041016-1.6191 0.041016h-1c-0.748 0-1.295-0.004396-1.6191-0.041016-0.16205-0.01829-0.24759-0.040254-0.28711-0.052734-0.012008-0.039035-0.03453-0.12504-0.052734-0.28711-0.036412-0.32414-0.041016-0.87172-0.041016-1.6191v-9.6641c0-0.56686 0.24053-1.1068 0.66211-1.4863 1.1977-1.0778 2.4052-2.1641 4.2676-3.8398l4.0703-3.6621z" clip-rule="nonzero" color="#000000" color-rendering="auto" dominant-baseline="auto" fill-rule="nonzero" image-rendering="auto" shape-rendering="auto" solid-color="#000000" style="font-feature-settings:normal;font-variant-alternates:normal;font-variant-caps:normal;font-variant-ligatures:normal;font-variant-numeric:normal;font-variant-position:normal;isolation:auto;mix-blend-mode:normal;shape-padding:0;text-decoration-color:#000000;text-decoration-line:none;text-decoration-style:solid;text-indent:0;text-orientation:mixed;text-transform:none;white-space:normal;"/><text x="0" y="47" fill="#000000" font-size="5px" font-weight="bold" font-family="'Helvetica Neue', Helvetica, Arial-Unicode, Arial, Sans-serif">Created by Raphaël Buquet</text><text x="0" y="52" fill="#000000" font-size="5px" font-weight="bold" font-family="'Helvetica Neue', Helvetica, Arial-Unicode, Arial, Sans-serif">from the Noun Project</text></svg>