<?xml version="1.0" encoding="UTF-8"?>
<svg width="76px" height="60px" viewBox="0 0 76 60" version="1.1" xmlns="http://www.w3.org/2000/svg" xmlns:xlink="http://www.w3.org/1999/xlink">
    <title>Shape</title>
    <g id="Page-1" stroke="none" stroke-width="1" fill="none" fill-rule="evenodd">
        <g id="noun_Image_1034952" transform="translate(-12.000000, 0.000000)" fill="#000000" fill-rule="nonzero">
            <path d="M82,0 L18,0 C14.6862915,0 12,2.6862915 12,6 L12,56 C12,58.209139 13.790861,60 16,60 L84,60 C86.209139,60 88,58.209139 88,56 L88,6 C88,2.6862915 85.3137085,0 82,0 Z M18,4 L82,4 C83.1045695,4 84,4.8954305 84,6 L84,44.49 L66.95,27.44 C66.199727,26.6888918 65.181637,26.2668534 64.12,26.2668534 C63.058363,26.2668534 62.040273,26.6888918 61.29,27.44 L53.87,34.86 L38.95,19.94 C38.199727,19.1888918 37.181637,18.7668534 36.12,18.7668534 C35.058363,18.7668534 34.040273,19.1888918 33.29,19.94 L16,37.24 L16,6 C16,4.8954305 16.8954305,4 18,4 Z" id="Shape"></path>
        </g>
    </g>
</svg>