<?xml version="1.0" encoding="UTF-8"?>
<svg width="90px" height="52px" viewBox="0 0 90 52" version="1.1" xmlns="http://www.w3.org/2000/svg" xmlns:xlink="http://www.w3.org/1999/xlink">
    <title>Group</title>
    <g id="Page-1" stroke="none" stroke-width="1" fill="none" fill-rule="evenodd">
        <g id="noun_Retweet_1058749" transform="translate(-5.000000, 0.000000)" fill="#000000" fill-rule="nonzero">
            <g id="Group" transform="translate(5.000000, 0.000000)">
                <path d="M88.8,29 C87.5,28.1 85.7,28.3 84.7,29.6 L76.3,41.1 L76.3,13.4 C76.3,7 71.1,1.7 64.6,1.7 L27.1,1.7 L31.3,7.5 L64.6,7.5 C67.8,7.5 70.4,10.1 70.4,13.3 L70.4,41 L62.1,29.6 C61.1,28.3 59.3,28 58,29 C56.8,29.9 56.5,31.5 57.2,32.8 C57.3,32.9 57.3,33 57.4,33.1 L65.7,44.5 L69.6,49.8 C69.7,49.9 69.8,50.1 69.9,50.2 L69.9,50.2 L69.9,50.3 L69.9,50.3 C70.8,51.2 72,51.7 73.2,51.7 C74.7,51.7 76.1,51 77,49.8 L89.4,33 C90.4,31.7 90.1,29.9 88.8,29 Z" id="Path"></path>
                <path d="M25.3,44.5 C22.1,44.5 19.5,41.9 19.5,38.7 L19.5,11 L27.8,22.4 C28.4,23.2 29.3,23.6 30.2,23.6 C30.8,23.6 31.4,23.4 31.9,23 C33.1,22.1 33.4,20.6 32.8,19.3 L32.8,19.3 L32.8,19.3 C32.7,19.2 32.7,19.1 32.6,19 L24.3,7.6 L20.4,2.3 C20.3,2.2 20.2,2.1 20.1,2 L20.1,1.9 L20.1,1.9 L20.1,1.8 L20.1,1.8 C19.2,0.9 18,0.4 16.7,0.4 C15.2,0.4 13.8,1.1 12.9,2.3 L0.6,19 C-0.4,20.3 -0.1,22.1 1.2,23.1 C2.5,24 4.3,23.8 5.3,22.5 L13.7,11 L13.7,38.7 C13.7,45.1 18.9,50.4 25.4,50.4 L63,50.4 L58.8,44.6 L25.3,44.6 L25.3,44.5 Z" id="Path"></path>
            </g>
        </g>
    </g>
</svg>