<?xml version="1.0" encoding="UTF-8"?>
<svg width="86px" height="90px" viewBox="0 0 86 90" version="1.1" xmlns="http://www.w3.org/2000/svg" xmlns:xlink="http://www.w3.org/1999/xlink">
    <title>Path</title>
    <g id="Page-1" stroke="none" stroke-width="1" fill="none" fill-rule="evenodd">
        <g id="noun_Share_3401996" transform="translate(-7.000000, 0.000000)" fill="#000000" fill-rule="nonzero">
            <path d="M75.31,56.25 C71.330659,56.2558882 67.4824415,57.6732795 64.45,60.25 L41.45,46.79 C41.5699921,45.6264186 41.5699921,44.4535814 41.45,43.29 L64.45,29.83 C70.7474371,35.1219889 79.9424509,35.1041681 86.219328,29.787809 C92.4962051,24.47145 94.0270383,15.4047445 89.8435978,8.32225311 C85.6601573,1.23976168 76.9807145,-1.79600348 69.2948917,1.1350353 C61.609069,4.06607407 57.1550764,12.1103607 58.75,20.18 L36.64,33.18 C31.8181444,28.337145 24.5520101,26.8795077 18.2353813,29.4879049 C11.9187525,32.0963021 7.79813142,38.2560015 7.79813142,45.09 C7.79813142,51.9239985 11.9187525,58.0836979 18.2353813,60.6920951 C24.5520101,63.3004923 31.8181444,61.842855 36.64,57 L58.76,70 C57.4445939,76.9898296 60.6544194,84.0537998 66.7847485,87.6603322 C72.9150777,91.2668646 80.6488407,90.6411142 86.1196014,86.0959202 C91.5903622,81.5507263 93.6227557,74.0626003 91.2007024,67.3751741 C88.778649,60.687748 82.4225145,56.2377808 75.31,56.25 Z" id="Path"></path>
        </g>
    </g>
</svg>