<?xml version="1.0" encoding="UTF-8"?>
<svg width="90px" height="91px" viewBox="0 0 90 91" version="1.1" xmlns="http://www.w3.org/2000/svg" xmlns:xlink="http://www.w3.org/1999/xlink">
    <title>Shape</title>
    <g id="Page-1" stroke="none" stroke-width="1" fill="none" fill-rule="evenodd">
        <g id="noun_Smiley_1479738" transform="translate(-5.000000, 0.000000)" fill="#000000" fill-rule="nonzero">
            <path d="M50,0.5 C25.187,0.5 5,20.687 5,45.5 C5,70.313 25.187,90.5 50,90.5 C74.813,90.5 95,70.313 95,45.5 C95,20.687 74.813,0.5 50,0.5 Z M50,84.5 C28.495,84.5 11,67.005 11,45.5 C11,23.995 28.495,6.5 50,6.5 C71.505,6.5 89,23.995 89,45.5 C89,67.005 71.505,84.5 50,84.5 Z M78.212,51.834 C76.649,51.29 74.938,52.114 74.392,53.678 C70.775,64.039 60.974,71 50,71 C39.026,71 29.225,64.039 25.608,53.679 C25.062,52.115 23.351,51.29 21.788,51.835 C20.224,52.381 19.398,54.092 19.944,55.656 C24.399,68.422 36.478,77 50,77 C63.522,77 75.601,68.422 80.056,55.656 C80.602,54.091 79.776,52.38 78.212,51.834 Z M32.224,42.5 C36.543,42.5 40.057,38.986 40.057,34.667 C40.057,30.348 36.543,26.834 32.224,26.834 C27.905,26.834 24.391,30.348 24.391,34.667 C24.391,38.986 27.904,42.5 32.224,42.5 Z M32.224,32.833 C33.235,32.833 34.057,33.655 34.057,34.666 C34.057,35.677 33.235,36.499 32.224,36.499 C31.213,36.499 30.391,35.677 30.391,34.666 C30.391,33.656 31.213,32.833 32.224,32.833 Z M67.776,42.5 C72.095,42.5 75.609,38.986 75.609,34.667 C75.609,30.348 72.095,26.834 67.776,26.834 C63.457,26.834 59.943,30.348 59.943,34.667 C59.943,38.986 63.457,42.5 67.776,42.5 Z M67.776,32.833 C68.787,32.833 69.609,33.655 69.609,34.666 C69.609,35.677 68.787,36.499 67.776,36.499 C66.765,36.499 65.943,35.677 65.943,34.666 C65.943,33.656 66.766,32.833 67.776,32.833 Z" id="Shape"></path>
        </g>
    </g>
</svg>